# xmcd
#
# Track frame offsets:
#	150
#	34170
#	61732
#	83438
#	118363
#	138461
#	184226
#	200909
#	220278
#
# Disc length: 3230 seconds
#
# Revision: 1
# Processed by: cddbd v1.5.2PL0 Copyright (c) Steve Scherf et al.
# Submitted via: audiograbber 1.83.01
#
DISCID=870c9c09
DTITLE=Joe Bonamassa - Live At The BBC [CD1]
DYEAR=2010
DGENRE=
TTITLE0=Last Kiss
TTITLE1=So Many Roads
TTITLE2=Three Times A Fool
TTITLE3=If Heartaches Were Nickels
TTITLE4=Further On Up The Road
TTITLE5=Sloe Gin
TTITLE6=Steal Your Heart Away
TTITLE7=Where The Fire Hits The Sea
TTITLE8=Young Man's Blues
EXTD=
EXTT0=
EXTT1=
EXTT2=
EXTT3=
EXTT4=
EXTT5=
EXTT6=
EXTT7=
EXTT8=
PLAYORDER=
